<svg version="1.1" viewBox="0.0 0.0 960.0 720.0" fill="none" stroke="none" stroke-linecap="square" stroke-miterlimit="10" xmlns:xlink="http://www.w3.org/1999/xlink" xmlns="http://www.w3.org/2000/svg"><clipPath id="p.0"><path d="m0 0l960.0 0l0 720.0l-960.0 0l0 -720.0z" clip-rule="nonzero"/></clipPath><g clip-path="url(#p.0)"><path fill="#000000" fill-opacity="0.0" d="m0 0l960.0 0l0 720.0l-960.0 0z" fill-rule="evenodd"/><path fill="#ffffff" d="m216.14436 306.64304l0 0c0 -136.52304 110.67378 -247.19684 247.19685 -247.19684l0 0c65.5607 0 128.43619 26.04388 174.79459 72.40228c46.3584 46.3584 72.40228 109.23389 72.40228 174.79456l0 0c0 136.52307 -110.67383 247.19687 -247.19687 247.19687l0 0c-136.52307 0 -247.19685 -110.6738 -247.19685 -247.19687z" fill-rule="evenodd"/><defs><linearGradient id="p.1" gradientUnits="userSpaceOnUse" gradientTransform="matrix(21.908941960374225 0.0 0.0 21.908941960374225 0.0 0.0)" spreadMethod="pad" x1="10.19406632018238" y1="3.041740076726297" x2="10.1939867660808" y2="24.950682036956085"><stop offset="0.0" stop-color="#1076d2"/><stop offset="1.0" stop-color="#093053"/></linearGradient></defs><path fill="url(#p.1)" d="m223.3412 306.64304l0 0c0 -132.54832 107.451675 -240.0 240.00002 -240.0l0 0c63.651947 0 124.69687 25.285645 169.7056 70.29438c45.008728 45.008728 70.29437 106.053665 70.29437 169.70561l0 0c0 132.54834 -107.45166 240.00003 -239.99997 240.00003l0 0c-132.54834 0 -240.00002 -107.45169 -240.00002 -240.00003z" fill-rule="evenodd"/><path fill="#000000" fill-opacity="0.0" d="m585.52325 551.71466l135.02362 78.078735l-22.48822 38.897644l-135.02362 -78.0788z" fill-rule="evenodd"/><path fill="#ffffff" d="m508.4338 224.18634l84.897675 49.102356l0 0c46.887634 27.1185 63.37909 86.30856 36.834595 132.20474c-26.544434 45.89615 -86.07294 61.11847 -132.9606 34.0l-84.897644 -49.102356z" fill-rule="evenodd"/><path fill="#ffffff" d="m415.89987 392.4674l-83.102356 -48.06299l0 0c-45.89618 -26.544464 -61.58383 -85.269196 -35.039368 -131.16536c26.544464 -45.89618 85.269196 -61.58383 131.16534 -35.039383l83.10239 48.063004z" fill-rule="evenodd"/><path fill="#000000" d="m400.22144 264.50558l-0.6649475 1.1496887l-8.872833 3.0450134q0.9375305 0.47003174 1.6273499 0.86898804l3.4084778 1.9713135l-0.6649475 1.1496887l-6.8440247 -3.958313l0.5397644 -0.93325806l7.618988 -2.6871948l1.428894 -0.47317505q-0.9859314 -0.47998047 -1.8245239 -0.9649658l-3.8683472 -2.2373047l0.7040405 -1.2173157l7.4121094 4.2868347z" fill-rule="nonzero"/><path fill="#ffffff" d="m411.52072 376.07156l-72.70865 -42.06299l0 0c-40.155884 -23.230743 -53.876434 -74.61575 -30.64566 -114.77165c23.230743 -40.155884 74.61575 -53.87642 114.77164 -30.64566l72.70868 42.06299z" fill-rule="evenodd"/><path fill="#0b5394" d="m409.35944 374.82153l-71.63779 -41.433075l0 0c-39.564453 -22.882843 -52.805542 -73.98584 -29.574799 -114.14174c23.230743 -40.155884 74.13632 -54.158432 113.700775 -31.275589l71.63782 41.433075z" fill-rule="evenodd"/><path fill="#0b5394" d="m519.8741 244.66667l70.97638 41.0551l0 0c39.199158 22.674133 52.144104 73.60791 28.913391 113.763794c-23.230774 40.155884 -73.84021 54.327667 -113.0394 31.653534l-70.97638 -41.055115z" fill-rule="evenodd"/><path fill="#0b5394" d="m463.4974 212.74821l105.41733 60.7874l-83.90552 145.5433l-105.41733 -60.787415z" fill-rule="evenodd"/><path fill="#ffffff" d="m273.70865 339.22308l50.44629 -10.404083l10.404114 -50.44629l10.404114 50.44629l50.44629 10.404083l-50.44629 10.404114l-10.404114 50.44629l-10.404114 -50.44629z" fill-rule="evenodd"/></g></svg>